{
  "accessors": [
    {
      "bufferView": 2,
      "componentType": 5126,
      "count": 14994,
      "max": [
        1.591660499572754,
        1.0000001192092896,
        0.9540594816207886
      ],
      "min": [
        -1.591660499572754,
        -1.51124107837677,
        -0.9540594816207886
      ],
      "type": "VEC3"
    },
    {
      "bufferView": 2,
      "byteOffset": 179928,
      "componentType": 5126,
      "count": 14994,
      "max": [
        1.0,
        1.0,
        1.0
      ],
      "min": [
        -1.0,
        -1.0,
        -1.0
      ],
      "type": "VEC3"
    },
    {
      "bufferView": 1,
      "componentType": 5126,
      "count": 14994,
      "max": [
        1.1373095512390137,
        1.2236552238464355
      ],
      "min": [
        -0.11883802711963654,
        -0.354999840259552
      ],
      "type": "VEC2"
    },
    {
      "bufferView": 0,
      "componentType": 5125,
      "count": 68736,
      "type": "SCALAR"
    },
    {
      "bufferView": 2,
      "byteOffset": 359856,
      "componentType": 5126,
      "count": 14124,
      "max": [
        0.06259865313768387,
        0.0018259757198393345,
        0.0007273409282788634
      ],
      "min": [
        -0.00017321077757515013,
        -0.0018259757198393345,
        -0.0007273409282788634
      ],
      "type": "VEC3"
    },
    {
      "bufferView": 2,
      "byteOffset": 529344,
      "componentType": 5126,
      "count": 14124,
      "max": [
        0.9857307076454163,
        0.9835463762283325,
        0.9833715558052063
      ],
      "min": [
        -0.9857324957847595,
        -0.9835463166236877,
        -0.9830270409584045
      ],
      "type": "VEC3"
    },
    {
      "bufferView": 1,
      "byteOffset": 119952,
      "componentType": 5126,
      "count": 14124,
      "max": [
        0.875,
        1.0
      ],
      "min": [
        0.125,
        -0.0001420529733877629
      ],
      "type": "VEC2"
    },
    {
      "bufferView": 0,
      "byteOffset": 274944,
      "componentType": 5125,
      "count": 60348,
      "type": "SCALAR"
    },
    {
      "bufferView": 2,
      "byteOffset": 698832,
      "componentType": 5126,
      "count": 26799,
      "max": [
        0.9746266603469849,
        1.0000003576278687,
        0.9746265411376953
      ],
      "min": [
        -0.9746266007423401,
        -0.6431096196174622,
        -0.9746266007423401
      ],
      "type": "VEC3"
    },
    {
      "bufferView": 2,
      "byteOffset": 1020420,
      "componentType": 5126,
      "count": 26799,
      "max": [
        1.0,
        1.0,
        1.0
      ],
      "min": [
        -1.0,
        -1.0,
        -1.0
      ],
      "type": "VEC3"
    },
    {
      "bufferView": 1,
      "byteOffset": 232944,
      "componentType": 5126,
      "count": 26799,
      "max": [
        1.0000001192092896,
        1.0000001192092896
      ],
      "min": [
        0.0,
        0.0
      ],
      "type": "VEC2"
    },
    {
      "bufferView": 0,
      "byteOffset": 516336,
      "componentType": 5125,
      "count": 105984,
      "type": "SCALAR"
    },
    {
      "bufferView": 2,
      "byteOffset": 1342008,
      "componentType": 5126,
      "count": 12274,
      "max": [
        0.9746266603469849,
        -0.3333330452442169,
        0.9746266007423401
      ],
      "min": [
        -0.9746266007423401,
        -1.0588433742523193,
        -0.9746266007423401
      ],
      "type": "VEC3"
    },
    {
      "bufferView": 2,
      "byteOffset": 1489296,
      "componentType": 5126,
      "count": 12274,
      "max": [
        1.0,
        1.0,
        1.0
      ],
      "min": [
        -1.0,
        -1.0,
        -1.0
      ],
      "type": "VEC3"
    },
    {
      "bufferView": 1,
      "byteOffset": 447336,
      "componentType": 5126,
      "count": 12274,
      "max": [
        1.0000001192092896,
        0.6666670441627502
      ],
      "min": [
        0.0,
        0.01000000536441803
      ],
      "type": "VEC2"
    },
    {
      "bufferView": 0,
      "byteOffset": 940272,
      "componentType": 5125,
      "count": 58368,
      "type": "SCALAR"
    },
    {
      "bufferView": 2,
      "byteOffset": 1636584,
      "componentType": 5126,
      "count": 1024,
      "max": [
        0.9999999403953552,
        -0.135640487074852,
        1.0
      ],
      "min": [
        -1.0,
        -0.9708312153816223,
        -1.0
      ],
      "type": "VEC3"
    },
    {
      "bufferView": 2,
      "byteOffset": 1648872,
      "componentType": 5126,
      "count": 1024,
      "max": [
        0.5859684348106384,
        0.9846513271331787,
        0.07488591223955154
      ],
      "min": [
        -0.5880905985832214,
        0.7845728993415833,
        -0.6200308203697205
      ],
      "type": "VEC3"
    },
    {
      "bufferView": 1,
      "byteOffset": 545528,
      "componentType": 5126,
      "count": 1024,
      "max": [
        1.0,
        1.0
      ],
      "min": [
        0.0,
        0.0
      ],
      "type": "VEC2"
    },
    {
      "bufferView": 0,
      "byteOffset": 1173744,
      "componentType": 5125,
      "count": 5766,
      "type": "SCALAR"
    },
    {
      "bufferView": 2,
      "byteOffset": 1661160,
      "componentType": 5126,
      "count": 14994,
      "max": [
        1.591660499572754,
        1.0000001192092896,
        0.9540594816207886
      ],
      "min": [
        -1.591660499572754,
        -1.51124107837677,
        -0.9540594816207886
      ],
      "type": "VEC3"
    },
    {
      "bufferView": 2,
      "byteOffset": 1841088,
      "componentType": 5126,
      "count": 14994,
      "max": [
        1.0,
        1.0,
        1.0
      ],
      "min": [
        -1.0,
        -1.0,
        -1.0
      ],
      "type": "VEC3"
    },
    {
      "bufferView": 1,
      "byteOffset": 553720,
      "componentType": 5126,
      "count": 14994,
      "max": [
        1.1373095512390137,
        1.2236552238464355
      ],
      "min": [
        -0.11883802711963654,
        -0.354999840259552
      ],
      "type": "VEC2"
    },
    {
      "bufferView": 0,
      "byteOffset": 1196808,
      "componentType": 5125,
      "count": 68736,
      "type": "SCALAR"
    },
    {
      "bufferView": 2,
      "byteOffset": 2021016,
      "componentType": 5126,
      "count": 14124,
      "max": [
        0.06259865313768387,
        0.0018259757198393345,
        0.0007273409282788634
      ],
      "min": [
        -0.00017321077757515013,
        -0.0018259757198393345,
        -0.0007273409282788634
      ],
      "type": "VEC3"
    },
    {
      "bufferView": 2,
      "byteOffset": 2190504,
      "componentType": 5126,
      "count": 14124,
      "max": [
        0.9857307076454163,
        0.9835463762283325,
        0.9833715558052063
      ],
      "min": [
        -0.9857324957847595,
        -0.9835463166236877,
        -0.9830270409584045
      ],
      "type": "VEC3"
    },
    {
      "bufferView": 1,
      "byteOffset": 673672,
      "componentType": 5126,
      "count": 14124,
      "max": [
        0.875,
        1.0
      ],
      "min": [
        0.125,
        -0.0001420529733877629
      ],
      "type": "VEC2"
    },
    {
      "bufferView": 0,
      "byteOffset": 1471752,
      "componentType": 5125,
      "count": 60348,
      "type": "SCALAR"
    },
    {
      "bufferView": 2,
      "byteOffset": 2359992,
      "componentType": 5126,
      "count": 26799,
      "max": [
        0.9746266603469849,
        1.0000003576278687,
        0.9746265411376953
      ],
      "min": [
        -0.9746266007423401,
        -0.6431096196174622,
        -0.9746266007423401
      ],
      "type": "VEC3"
    },
    {
      "bufferView": 2,
      "byteOffset": 2681580,
      "componentType": 5126,
      "count": 26799,
      "max": [
        1.0,
        1.0,
        1.0
      ],
      "min": [
        -1.0,
        -1.0,
        -1.0
      ],
      "type": "VEC3"
    },
    {
      "bufferView": 1,
      "byteOffset": 786664,
      "componentType": 5126,
      "count": 26799,
      "max": [
        1.0000001192092896,
        1.0000001192092896
      ],
      "min": [
        0.0,
        0.0
      ],
      "type": "VEC2"
    },
    {
      "bufferView": 0,
      "byteOffset": 1713144,
      "componentType": 5125,
      "count": 105984,
      "type": "SCALAR"
    },
    {
      "bufferView": 2,
      "byteOffset": 3003168,
      "componentType": 5126,
      "count": 12274,
      "max": [
        0.9746266603469849,
        -0.3333330452442169,
        0.9746266007423401
      ],
      "min": [
        -0.9746266007423401,
        -1.0588433742523193,
        -0.9746266007423401
      ],
      "type": "VEC3"
    },
    {
      "bufferView": 2,
      "byteOffset": 3150456,
      "componentType": 5126,
      "count": 12274,
      "max": [
        1.0,
        1.0,
        1.0
      ],
      "min": [
        -1.0,
        -1.0,
        -1.0
      ],
      "type": "VEC3"
    },
    {
      "bufferView": 1,
      "byteOffset": 1001056,
      "componentType": 5126,
      "count": 12274,
      "max": [
        1.0000001192092896,
        0.6666670441627502
      ],
      "min": [
        0.0,
        0.01000000536441803
      ],
      "type": "VEC2"
    },
    {
      "bufferView": 0,
      "byteOffset": 2137080,
      "componentType": 5125,
      "count": 58368,
      "type": "SCALAR"
    },
    {
      "bufferView": 2,
      "byteOffset": 3297744,
      "componentType": 5126,
      "count": 1024,
      "max": [
        1.0000001192092896,
        -0.135640487074852,
        1.0000001192092896
      ],
      "min": [
        -1.0000001192092896,
        -0.970831036567688,
        -1.0000001192092896
      ],
      "type": "VEC3"
    },
    {
      "bufferView": 2,
      "byteOffset": 3310032,
      "componentType": 5126,
      "count": 1024,
      "max": [
        0.5859683156013489,
        0.9846514463424683,
        0.07488363981246948
      ],
      "min": [
        -0.5880905985832214,
        0.7845727205276489,
        -0.62003093957901
      ],
      "type": "VEC3"
    },
    {
      "bufferView": 1,
      "byteOffset": 1099248,
      "componentType": 5126,
      "count": 1024,
      "max": [
        1.0,
        1.0
      ],
      "min": [
        0.0,
        0.0
      ],
      "type": "VEC2"
    },
    {
      "bufferView": 0,
      "byteOffset": 2370552,
      "componentType": 5125,
      "count": 5766,
      "type": "SCALAR"
    }
  ],
  "asset": {
    "extras": {
      "author": "Jozsef Hocza (https://sketchfab.com/hocza)",
      "license": "CC-BY-4.0 (http://creativecommons.org/licenses/by/4.0/)",
      "source": "https://sketchfab.com/3d-models/cosmetic-tube-da850eea42d5498783bdd0a5ce6d1f14",
      "title": "Cosmetic tube"
    },
    "generator": "Sketchfab-14.32.1",
    "version": "2.0"
  },
  "bufferViews": [
    {
      "buffer": 0,
      "byteLength": 2393616,
      "name": "floatBufferViews",
      "target": 34963
    },
    {
      "buffer": 0,
      "byteLength": 1107440,
      "byteOffset": 2393616,
      "byteStride": 8,
      "name": "floatBufferViews",
      "target": 34962
    },
    {
      "buffer": 0,
      "byteLength": 3322320,
      "byteOffset": 3501056,
      "byteStride": 12,
      "name": "floatBufferViews",
      "target": 34962
    }
  ],
  "buffers": [
    {
      "byteLength": 6823376,
      "uri": "scene.bin"
    }
  ],
  "images": [
    {
      "uri": "textures/Material_baseColor.png"
    }
  ],
  "materials": [
    {
      "doubleSided": true,
      "name": "material_0",
      "pbrMetallicRoughness": {
        "metallicFactor": 0.0,
        "roughnessFactor": 0.6
      }
    },
    {
      "doubleSided": true,
      "name": "Material.001",
      "pbrMetallicRoughness": {
        "metallicFactor": 0.0
      }
    },
    {
      "doubleSided": true,
      "name": "Material",
      "pbrMetallicRoughness": {
        "baseColorTexture": {
          "index": 0
        },
        "metallicFactor": 0.0,
        "roughnessFactor": 0.5
      }
    }
  ],
  "meshes": [
    {
      "name": "Object_0",
      "primitives": [
        {
          "attributes": {
            "NORMAL": 1,
            "POSITION": 0,
            "TEXCOORD_0": 2
          },
          "indices": 3,
          "material": 1,
          "mode": 4
        }
      ]
    },
    {
      "name": "Object_1",
      "primitives": [
        {
          "attributes": {
            "NORMAL": 5,
            "POSITION": 4,
            "TEXCOORD_0": 6
          },
          "indices": 7,
          "material": 1,
          "mode": 4
        }
      ]
    },
    {
      "name": "Object_2",
      "primitives": [
        {
          "attributes": {
            "NORMAL": 9,
            "POSITION": 8,
            "TEXCOORD_0": 10
          },
          "indices": 11,
          "material": 0,
          "mode": 4
        }
      ]
    },
    {
      "name": "Object_3",
      "primitives": [
        {
          "attributes": {
            "NORMAL": 13,
            "POSITION": 12,
            "TEXCOORD_0": 14
          },
          "indices": 15,
          "material": 0,
          "mode": 4
        }
      ]
    },
    {
      "name": "Object_4",
      "primitives": [
        {
          "attributes": {
            "NORMAL": 17,
            "POSITION": 16,
            "TEXCOORD_0": 18
          },
          "indices": 19,
          "material": 2,
          "mode": 4
        }
      ]
    },
    {
      "name": "Object_5",
      "primitives": [
        {
          "attributes": {
            "NORMAL": 21,
            "POSITION": 20,
            "TEXCOORD_0": 22
          },
          "indices": 23,
          "material": 1,
          "mode": 4
        }
      ]
    },
    {
      "name": "Object_6",
      "primitives": [
        {
          "attributes": {
            "NORMAL": 25,
            "POSITION": 24,
            "TEXCOORD_0": 26
          },
          "indices": 27,
          "material": 1,
          "mode": 4
        }
      ]
    },
    {
      "name": "Object_7",
      "primitives": [
        {
          "attributes": {
            "NORMAL": 29,
            "POSITION": 28,
            "TEXCOORD_0": 30
          },
          "indices": 31,
          "material": 0,
          "mode": 4
        }
      ]
    },
    {
      "name": "Object_8",
      "primitives": [
        {
          "attributes": {
            "NORMAL": 33,
            "POSITION": 32,
            "TEXCOORD_0": 34
          },
          "indices": 35,
          "material": 0,
          "mode": 4
        }
      ]
    },
    {
      "name": "Object_9",
      "primitives": [
        {
          "attributes": {
            "NORMAL": 37,
            "POSITION": 36,
            "TEXCOORD_0": 38
          },
          "indices": 39,
          "material": 2,
          "mode": 4
        }
      ]
    }
  ],
  "nodes": [
    {
      "children": [
        1
      ],
      "matrix": [
        1.0,
        0.0,
        0.0,
        0.0,
        0.0,
        2.220446049250313e-16,
        -1.0,
        0.0,
        0.0,
        1.0,
        2.220446049250313e-16,
        0.0,
        0.0,
        0.0,
        0.0,
        1.0
      ],
      "name": "Sketchfab_model"
    },
    {
      "children": [
        2
      ],
      "name": "root"
    },
    {
      "children": [
        3,
        13
      ],
      "matrix": [
        1.0,
        0.0,
        0.0,
        0.0,
        0.0,
        2.220446049250313e-16,
        1.0,
        0.0,
        0.0,
        -1.0,
        2.220446049250313e-16,
        0.0,
        0.0,
        0.0,
        0.0,
        1.0
      ],
      "name": "GLTF_SceneRootNode"
    },
    {
      "children": [
        4,
        5,
        7,
        9,
        11
      ],
      "matrix": [
        0.019498731382769533,
        0.0044496664017668885,
        0.0,
        0.0,
        -0.012236582501257082,
        0.05362151084862603,
        0.0,
        0.0,
        0.0,
        0.0,
        0.020000001415610313,
        0.0,
        -0.04385318607091904,
        0.15404708683490753,
        0.0,
        1.0
      ],
      "name": "Cylinder_4"
    },
    {
      "mesh": 0,
      "name": "Object_4"
    },
    {
      "children": [
        6
      ],
      "matrix": [
        49.999996185302734,
        0.0,
        0.0,
        0.0,
        0.0,
        18.18181800842285,
        0.0,
        0.0,
        0.0,
        0.0,
        32.28628158569336,
        0.0,
        -1.5641379356384277,
        0.9646544456481934,
        0.0,
        1.0
      ],
      "name": "Cube_0"
    },
    {
      "mesh": 1,
      "name": "Object_6"
    },
    {
      "children": [
        8
      ],
      "matrix": [
        0.9424998760223389,
        0.0,
        0.0,
        0.0,
        0.0,
        0.19181819260120392,
        0.0,
        0.0,
        0.0,
        0.0,
        0.9424998760223389,
        0.0,
        0.0,
        -1.5043525695800781,
        0.0,
        1.0
      ],
      "name": "Cylinder.002_1"
    },
    {
      "mesh": 2,
      "name": "Object_8"
    },
    {
      "children": [
        10
      ],
      "matrix": [
        0.9424998760223389,
        0.0,
        0.0,
        0.0,
        0.0,
        0.19181819260120392,
        0.0,
        0.0,
        0.0,
        0.0,
        0.9424998760223389,
        0.0,
        0.0,
        -1.5028477907180786,
        0.0,
        1.0
      ],
      "name": "Cylinder.003_2"
    },
    {
      "mesh": 3,
      "name": "Object_10"
    },
    {
      "children": [
        12
      ],
      "matrix": [
        0.8356067538261414,
        0.0,
        0.0,
        0.0,
        0.0,
        0.0,
        0.8356066942214966,
        0.0,
        0.0,
        -0.7857829332351685,
        0.0,
        0.0,
        0.0,
        -0.10826972126960754,
        1.0226070880889893,
        1.0
      ],
      "name": "Plane_3"
    },
    {
      "mesh": 4,
      "name": "Object_12"
    },
    {
      "children": [
        14,
        15,
        17,
        19,
        21
      ],
      "matrix": [
        0.019449001756459364,
        -0.004662229863665571,
        -0.0,
        0.0,
        0.01282113201652933,
        0.05348475437743092,
        0.0,
        0.0,
        0.0,
        0.0,
        0.020000001415610313,
        0.0,
        0.05530358850955963,
        0.13751228153705597,
        0.0,
        1.0
      ],
      "name": "Cylinder.001_9"
    },
    {
      "mesh": 5,
      "name": "Object_14"
    },
    {
      "children": [
        16
      ],
      "matrix": [
        49.999996185302734,
        0.0,
        0.0,
        0.0,
        0.0,
        18.181819915771484,
        0.0,
        0.0,
        0.0,
        0.0,
        32.286285400390625,
        0.0,
        -1.5641378164291382,
        0.9646542072296143,
        0.0,
        1.0
      ],
      "name": "Cube.002_5"
    },
    {
      "mesh": 6,
      "name": "Object_16"
    },
    {
      "children": [
        18
      ],
      "matrix": [
        0.9424999356269836,
        0.0,
        0.0,
        0.0,
        0.0,
        0.19181819260120392,
        0.0,
        0.0,
        0.0,
        0.0,
        0.9424999356269836,
        0.0,
        0.0,
        -1.5043526887893677,
        0.0,
        1.0
      ],
      "name": "Cylinder.004_6"
    },
    {
      "mesh": 7,
      "name": "Object_18"
    },
    {
      "children": [
        20
      ],
      "matrix": [
        0.9424999356269836,
        0.0,
        0.0,
        0.0,
        0.0,
        0.19181819260120392,
        0.0,
        0.0,
        0.0,
        0.0,
        0.9424999356269836,
        0.0,
        0.0,
        -1.5028477907180786,
        0.0,
        1.0
      ],
      "name": "Cylinder.005_7"
    },
    {
      "mesh": 8,
      "name": "Object_20"
    },
    {
      "children": [
        22
      ],
      "matrix": [
        0.8356066942214966,
        0.0,
        0.0,
        0.0,
        0.0,
        0.0,
        0.8356067538261414,
        0.0,
        0.0,
        -0.7857828736305237,
        0.0,
        0.0,
        0.0,
        -0.10826966166496277,
        1.0226070880889893,
        1.0
      ],
      "name": "Plane.002_8"
    },
    {
      "mesh": 9,
      "name": "Object_22"
    }
  ],
  "samplers": [
    {
      "magFilter": 9729,
      "minFilter": 9987,
      "wrapS": 10497,
      "wrapT": 10497
    }
  ],
  "scene": 0,
  "scenes": [
    {
      "name": "Sketchfab_Scene",
      "nodes": [
        0
      ]
    }
  ],
  "textures": [
    {
      "sampler": 0,
      "source": 0
    }
  ]
}
